<svg xmlns="http://www.w3.org/2000/svg" width="32" height="32">
    <path fill="#83cd29"
        d="M.207 18.57v-3.562h4.45V14.8H.206v-3.25h4.73v-.207H0v7.433h4.977v-.207Zm8.781-5.144-1.843 2.426-1.801-2.426H5.07l1.95 2.582-2.137 2.77h.25l2.012-2.614 2.02 2.613h.26l-2.148-2.77 1.961-2.581Zm1.059 7.187v-3.332h.023c.125.485.371.875.739 1.168.367.297.836.446 1.406.446.367 0 .695-.075.98-.227.282-.148.52-.352.711-.61a2.81 2.81 0 0 0 .438-.894c.101-.34.152-.695.152-1.07a3.9 3.9 0 0 0-.156-1.117 2.734 2.734 0 0 0-.453-.883 2.068 2.068 0 0 0-1.672-.793c-.27 0-.524.039-.754.12a1.984 1.984 0 0 0-.621.337c-.18.148-.34.324-.469.515-.133.2-.23.418-.3.653h-.024v-1.5H9.84v7.187Zm2.168-1.918c-.652 0-1.176-.222-1.574-.672-.395-.449-.594-1.09-.594-1.93 0-.347.05-.679.148-.991.098-.313.239-.586.422-.82a1.975 1.975 0 0 1 1.598-.774c.348 0 .652.07.91.21.262.137.477.329.648.567.168.238.297.516.383.824a3.767 3.767 0 0 1 .012 1.914 2.68 2.68 0 0 1-.371.832 1.94 1.94 0 0 1-.64.606c-.259.156-.575.234-.942.234m3.426.082V15.75c0-.293.043-.578.125-.855.082-.278.21-.524.386-.735.172-.21.395-.379.66-.5.266-.12.586-.172.954-.152V13.3a2.523 2.523 0 0 0-.84.105c-.238.074-.446.18-.617.313a1.609 1.609 0 0 0-.418.46c-.106.18-.18.372-.23.571h-.02v-1.324h-.207v5.351Zm2.382-2.632h4.48a3.823 3.823 0 0 0-.108-1.063 2.64 2.64 0 0 0-.418-.906 2.163 2.163 0 0 0-.739-.637c-.3-.156-.66-.238-1.078-.238a2.185 2.185 0 0 0-1.625.734 2.815 2.815 0 0 0-.52.88 3.32 3.32 0 0 0-.199 1.187c0 .398.047.765.137 1.109.09.344.227.644.414.894.188.254.43.454.727.59.293.14.648.203 1.066.2.61 0 1.125-.172 1.543-.516.414-.344.66-.828.738-1.453h-.21c-.09.59-.32 1.031-.692 1.328-.371.293-.836.441-1.398.441-.383 0-.707-.066-.97-.199a1.749 1.749 0 0 1-.648-.539c-.164-.23-.289-.5-.367-.809a4.271 4.271 0 0 1-.133-1.003m4.27-.207h-4.266c.02-.376.09-.715.207-1.012.118-.297.274-.555.461-.766.192-.21.414-.37.668-.484.254-.11.528-.168.817-.168.347 0 .652.066.918.195.261.129.484.305.66.524.18.222.312.484.402.777.09.297.133.605.133.934m4.531-.93h.207c0-.594-.172-1.031-.52-1.301-.347-.27-.82-.406-1.413-.406-.336 0-.618.043-.844.125-.23.086-.418.191-.563.324-.148.133-.25.277-.312.438-.063.16-.094.312-.094.457 0 .293.05.523.156.699.102.172.266.308.489.406.152.066.328.129.52.188.195.054.421.113.679.175.226.055.453.11.676.168.222.055.418.13.586.223.172.094.312.215.418.36.109.144.16.335.16.57 0 .23-.051.425-.16.586a1.306 1.306 0 0 1-.41.39 1.852 1.852 0 0 1-.56.219 2.888 2.888 0 0 1-.597.066c-.633 0-1.117-.14-1.453-.422-.336-.28-.504-.722-.504-1.328h-.21c0 .676.183 1.168.546 1.48.367.313.906.47 1.621.47.23 0 .461-.028.692-.079a1.9 1.9 0 0 0 .625-.257c.183-.114.336-.274.449-.457a1.31 1.31 0 0 0 .172-.688c0-.258-.051-.465-.153-.625-.101-.16-.23-.289-.394-.394a2.047 2.047 0 0 0-.555-.247c-.203-.058-.41-.117-.617-.171a54.987 54.987 0 0 0-.766-.196 4.847 4.847 0 0 1-.61-.199 1.085 1.085 0 0 1-.433-.328c-.105-.14-.16-.344-.16-.61 0-.046.016-.136.043-.261a.952.952 0 0 1 .195-.38c.106-.128.266-.241.48-.343.216-.101.513-.152.888-.152.254 0 .488.031.703.086.21.054.39.144.543.265.156.121.273.274.355.461.082.188.125.418.125.688m4.82 0h.211c0-.594-.175-1.031-.523-1.301-.344-.27-.816-.406-1.414-.406-.332 0-.613.043-.844.125-.23.082-.418.191-.562.324a1.18 1.18 0 0 0-.313.438c-.062.16-.094.312-.094.457 0 .293.051.523.157.699.105.172.265.308.488.406.152.066.328.129.523.188.192.054.418.113.676.175.227.055.453.11.676.168.223.055.418.13.59.223.168.094.308.215.414.36.11.144.164.335.164.57 0 .23-.055.425-.164.586a1.306 1.306 0 0 1-.41.39 1.852 1.852 0 0 1-.559.219 2.888 2.888 0 0 1-.598.066c-.632 0-1.117-.14-1.453-.422-.336-.28-.504-.722-.504-1.328h-.207c0 .676.18 1.168.547 1.48.364.313.903.47 1.617.47.231 0 .461-.028.692-.079a1.9 1.9 0 0 0 .625-.257c.183-.114.336-.274.45-.457a1.31 1.31 0 0 0 .171-.688c0-.258-.05-.465-.152-.625-.098-.16-.23-.289-.395-.394a2.076 2.076 0 0 0-.55-.247c-.208-.058-.415-.117-.622-.171-.254-.067-.508-.133-.765-.196a4.847 4.847 0 0 1-.61-.199 1.046 1.046 0 0 1-.43-.328c-.109-.14-.163-.344-.163-.61 0-.046.015-.136.042-.261a.916.916 0 0 1 .2-.38c.101-.128.261-.241.476-.343.215-.101.512-.152.887-.152.258 0 .492.031.703.086.211.054.395.144.547.265.152.121.27.274.352.461.085.188.125.418.125.688" />
</svg>