<svg xmlns="http://www.w3.org/2000/svg" width="32" height="32"><path style="stroke:none;fill-rule:nonzero;fill:#000;fill-opacity:1" d="M31.395 19.16c-.188-.562-.672-.953-1.305-1.047-.297-.047-.637-.027-1.04.055-.702.145-1.222.203-1.6.21 1.433-2.421 2.6-5.183 3.273-7.784 1.086-4.203.504-6.121-.176-6.985-1.793-2.293-4.41-3.527-7.57-3.562a13.235 13.235 0 0 0-3.938.55 14.26 14.26 0 0 0-2.3-.21c-1.52-.024-2.864.304-4.012.988a17.978 17.978 0 0 0-2.829-.71C7.128.206 4.895.561 3.266 1.714 1.289 3.113.37 5.539.539 8.925c.055 1.075.656 4.348 1.606 7.454.542 1.781 1.125 3.266 1.726 4.402.852 1.614 1.762 2.563 2.785 2.907.574.19 1.614.324 2.711-.59.137.168.324.336.57.492.313.195.696.36 1.075.453 1.375.344 2.664.258 3.761-.223.008.196.012.38.016.543l.024.758c.066 1.621.175 2.879.503 3.762.02.05.043.12.067.203.164.496.437 1.332 1.129 1.988.718.676 1.59.887 2.383.887a5.42 5.42 0 0 0 1.113-.125c1.191-.254 2.543-.645 3.523-2.035.922-1.317 1.371-3.301 1.453-6.426.012-.086.02-.172.032-.254l.02-.164.214.02.059.003c1.21.055 2.695-.203 3.605-.625.719-.332 3.023-1.55 2.48-3.195"/><path style="stroke:none;fill-rule:nonzero;fill:#336791;fill-opacity:1" d="M29.32 19.48c-3.601.747-3.851-.476-3.851-.476 3.804-5.649 5.398-12.817 4.023-14.57-3.746-4.786-10.23-2.524-10.336-2.465l-.035.008a12.619 12.619 0 0 0-2.406-.25c-1.63-.028-2.867.425-3.809 1.136 0 0-11.566-4.761-11.027 5.996.113 2.29 3.281 17.317 7.055 12.778 1.382-1.66 2.714-3.063 2.714-3.063a3.514 3.514 0 0 0 2.29.582l.062-.054c-.02.207-.012.41.027.648-.972 1.086-.687 1.277-2.632 1.676-1.97.406-.813 1.129-.06 1.316.919.23 3.036.555 4.466-1.449l-.059.23c.383.305.649 1.985.606 3.508-.047 1.524-.075 2.57.222 3.387.301.816.602 2.656 3.157 2.105 2.136-.457 3.246-1.64 3.398-3.62.11-1.407.355-1.2.371-2.458l.2-.593c.23-1.91.038-2.524 1.35-2.239l.321.028c.969.047 2.238-.157 2.98-.5 1.606-.743 2.555-1.985.973-1.66Zm0 0"/><path style="stroke:none;fill-rule:nonzero;fill:#fff;fill-opacity:1" d="M13.586 9.883c-.324-.047-.621-.004-.77.11a.29.29 0 0 0-.117.187c-.015.133.078.28.133.355a.994.994 0 0 0 .637.399c.035.004.07.007.105.007.39 0 .75-.304.781-.53.04-.286-.37-.473-.77-.528m10.763.008c-.032-.223-.426-.286-.801-.235-.375.055-.738.223-.707.446.023.171.336.468.707.468a.759.759 0 0 0 .094-.008.914.914 0 0 0 .511-.28c.133-.137.207-.29.196-.391"/><path style="stroke:none;fill-rule:nonzero;fill:#fff;fill-opacity:1" d="M30.52 19.398c-.137-.418-.579-.55-1.313-.398-2.184.45-2.965.137-3.223-.05 1.7-2.587 3.094-5.708 3.848-8.622.355-1.383.55-2.664.566-3.71.02-1.145-.175-1.99-.578-2.505C28.195 2.04 25.812.926 22.926.895c-1.985-.024-3.66.484-3.985.628a9.801 9.801 0 0 0-2.246-.289c-1.488-.023-2.773.332-3.84 1.059a17.427 17.427 0 0 0-3.125-.82c-2.53-.407-4.539-.098-5.972.918-1.715 1.214-2.504 3.382-2.352 6.445.051 1.031.64 4.2 1.567 7.234 1.218 3.996 2.543 6.258 3.941 6.723.16.055.352.094.559.094.507 0 1.132-.23 1.78-1.008.794-.95 1.61-1.879 2.458-2.781a3.9 3.9 0 0 0 1.766.476c0 .016.003.031.003.047-.105.129-.21.254-.312.387-.426.543-.516.652-1.89.937-.391.078-1.426.293-1.442 1.024-.02.793 1.226 1.129 1.367 1.164.496.12.969.183 1.422.183 1.105 0 2.078-.363 2.852-1.066-.024 2.836.093 5.629.433 6.48.281.696.961 2.399 3.113 2.399.317 0 .665-.035 1.043-.117 2.247-.48 3.223-1.473 3.598-3.66.203-1.172.55-3.961.711-5.461.344.109.79.156 1.266.156.996 0 2.148-.211 2.87-.547.813-.375 2.274-1.3 2.009-2.102m-5.344-10.12c-.008.44-.07.843-.133 1.261-.07.453-.14.918-.16 1.484-.016.551.05 1.122.117 1.676.137 1.117.273 2.266-.262 3.403a4.604 4.604 0 0 1-.234-.485c-.067-.164-.211-.422-.41-.777-.778-1.39-2.594-4.649-1.664-5.977.277-.398.98-.804 2.746-.586m-2.14-7.488c2.585.059 4.632 1.024 6.081 2.875 1.11 1.418-.113 7.879-3.652 13.45-.04-.044-.074-.09-.11-.134l-.043-.058c.915-1.508.735-3.004.575-4.332-.067-.543-.125-1.055-.11-1.54.016-.51.082-.948.149-1.374.078-.524.16-1.063.14-1.7a.691.691 0 0 0 .012-.242c-.055-.609-.754-2.441-2.176-4.097-.78-.907-1.914-1.918-3.465-2.602a11.48 11.48 0 0 1 2.598-.246M8.566 21.305c-.714.863-1.207.695-1.37.644-1.06-.355-2.286-2.59-3.368-6.137-.937-3.07-1.484-6.156-1.527-7.019-.137-2.738.523-4.645 1.969-5.672 2.351-1.668 6.218-.668 7.773-.164l-.066.066C9.426 5.598 9.488 10 9.492 10.266c0 .105.008.254.02.453.047.742.129 2.117-.09 3.68-.203 1.449.242 2.867 1.223 3.89.101.106.207.203.32.3a63.55 63.55 0 0 0-2.399 2.716m2.727-3.633c-.793-.828-1.152-1.973-.988-3.152.23-1.645.144-3.082.101-3.852-.008-.11-.011-.203-.015-.277.37-.332 2.097-1.254 3.328-.973.562.129.906.512 1.047 1.168.738 3.406.097 4.828-.414 5.969-.11.234-.207.457-.293.687l-.067.176c-.168.45-.324.867-.418 1.266-.844-.004-1.66-.364-2.281-1.012m.129 4.594a1.964 1.964 0 0 1-.598-.258c.11-.051.301-.121.637-.188 1.613-.332 1.863-.57 2.41-1.261.125-.157.266-.336.461-.559.293-.324.43-.27.672-.168.195.078.387.324.465.598.035.129.078.37-.059.558-1.137 1.594-2.797 1.575-3.988 1.278m8.457 7.87c-1.977.427-2.676-.585-3.137-1.738-.297-.746-.445-4.101-.34-7.812a.555.555 0 0 0-.02-.14 1.944 1.944 0 0 0-.054-.262c-.156-.54-.531-.993-.984-1.18-.18-.074-.508-.211-.903-.11.082-.347.23-.738.387-1.164l.067-.18c.078-.198.171-.41.27-.632.538-1.191 1.273-2.828.476-6.52-.301-1.382-1.301-2.058-2.813-1.902-.91.094-1.742.461-2.156.668l-.246.133c.117-1.395.554-4 2.187-5.649 1.028-1.035 2.399-1.55 4.07-1.52 3.29.052 5.399 1.74 6.59 3.15 1.024 1.21 1.579 2.433 1.801 3.09-1.668-.169-2.8.16-3.375.98-1.25 1.789.684 5.257 1.613 6.925.172.305.317.57.364.684.304.734.695 1.223.98 1.582.09.11.176.215.239.309-.504.144-1.41.48-1.329 2.16-.066.844-.539 4.797-.78 6.191-.321 1.844-.997 2.531-2.907 2.938m8.258-9.446c-.516.239-1.383.418-2.203.457-.907.043-1.368-.101-1.477-.191-.05-1.047.34-1.156.754-1.27l.187-.058c.04.031.079.062.125.09.73.48 2.028.535 3.864.156l.02-.004c-.247.23-.669.543-1.27.82"/></svg>