<svg xmlns="http://www.w3.org/2000/svg" width="32" height="32"><defs><clipPath id="a"><path d="M7.5 0h17C28.64 0 32 3.36 32 7.5v17c0 4.14-3.36 7.5-7.5 7.5h-17C3.36 32 0 28.64 0 24.5v-17C0 3.36 3.36 0 7.5 0Zm0 0"/></clipPath><clipPath id="c"><path d="M2 4h30v28H2Zm0 0"/></clipPath><clipPath id="d"><path d="M7.5 0h17C28.64 0 32 3.36 32 7.5v17c0 4.14-3.36 7.5-7.5 7.5h-17C3.36 32 0 28.64 0 24.5v-17C0 3.36 3.36 0 7.5 0Zm0 0"/></clipPath><linearGradient id="b" x1="147.614" x2="147.614" y1="5.239" y2="241.763" gradientTransform="scale(.125)" gradientUnits="userSpaceOnUse"><stop offset="0" style="stop-color:#97d9f6;stop-opacity:1"/><stop offset=".92" style="stop-color:#0f80cc;stop-opacity:1"/><stop offset="1" style="stop-color:#0f80cc;stop-opacity:1"/></linearGradient></defs><g clip-path="url(#a)"><path d="M7.5 0C3.36 0 0 3.36 0 7.5v17C0 28.64 3.36 32 7.5 32h13.559c-.223-.656-.399-1.691-.497-2.879a26.786 26.786 0 0 1-.066-3.234l-.02-.262s-.234-1.578-.57-2.871c-.148-.578-.32-1.098-.496-1.399-.094-.156.008-.793.266-1.738.148.258.781 1.367.91 1.723.14.402.172.52.172.52s-.348-1.786-.918-2.825c.14-.465.289-.926.445-1.383.195.344.645 1.141.805 1.516.015.035.031.066.039.094l.062.172c.09.265.114.347.114.347s-.035-.172-.098-.437c-.027-.114-.059-.246-.098-.387-.144-.555-.359-1.273-.64-1.84.718-3.722 3.023-8.601 5.508-11.234.214-.227.43-.438.644-.63 1.453-1.288 2.926-1.722 4.14-.64C31.642 5.398 32 6.48 32 7.727V7.5C32 3.36 28.64 0 24.5 0Zm0 0" style="stroke:none;fill-rule:nonzero;fill:#d9d9d9;fill-opacity:1"/><path d="M7.5 0C3.36 0 0 3.36 0 7.5v17C0 28.64 3.36 32 7.5 32h13.559c-.223-.656-.399-1.691-.497-2.879a26.786 26.786 0 0 1-.066-3.234l-.02-.262s-.234-1.578-.57-2.871c-.148-.578-.32-1.098-.496-1.399-.094-.156.008-.793.266-1.738.148.258.781 1.367.91 1.723.14.402.172.52.172.52s-.348-1.786-.918-2.825c.14-.465.289-.926.445-1.383.195.344.645 1.141.805 1.516.015.035.031.066.039.094l.062.172c.09.265.114.347.114.347s-.035-.172-.098-.437c-.027-.114-.059-.246-.098-.387-.144-.555-.359-1.273-.64-1.84.718-3.722 3.023-8.601 5.508-11.234.214-.227.43-.438.644-.63 1.453-1.288 2.926-1.722 4.14-.64C31.642 5.398 32 6.48 32 7.727V7.5C32 3.36 28.64 0 24.5 0Zm0 0" style="stroke:none;fill-rule:nonzero;fill:url(#b)"/></g><g clip-path="url(#c)"><g clip-path="url(#d)"><path d="M30.762 4.613c-1.215-1.082-2.688-.648-4.14.64-.216.192-.43.403-.645.63-2.485 2.633-4.79 7.512-5.508 11.234.281.567.496 1.285.64 1.84.04.14.07.273.098.387.063.265.098.437.098.437s-.024-.082-.114-.347c-.02-.051-.039-.106-.062-.172a.954.954 0 0 0-.04-.094c-.16-.375-.609-1.172-.804-1.516-.156.457-.305.918-.445 1.383.57 1.04.918 2.824.918 2.824s-.031-.117-.172-.52c-.129-.355-.762-1.464-.91-1.722-.258.945-.36 1.582-.266 1.738.176.301.348.82.496 1.399.336 1.293.57 2.871.57 2.871l.02.262a26.786 26.786 0 0 0 .067 3.234c.113 1.352.324 2.508.59 3.129l.183-.098c-.395-1.222-.555-2.824-.484-4.672.105-2.82.757-6.226 1.957-9.773 2.03-5.355 4.847-9.652 7.425-11.707-2.351 2.121-5.53 8.98-6.48 11.523-1.067 2.844-1.824 5.512-2.277 8.07.785-2.398 3.324-3.429 3.324-3.429s1.246-1.531 2.699-3.727c-.871.2-2.3.54-2.781.743-.707.297-.899.398-.899.398s2.293-1.394 4.258-2.027c2.703-4.254 5.649-10.293 2.684-12.938M3.566 6.125c-.382 0-.695.113-.933.336-.238.223-.36.516-.36.875 0 .187.028.355.09.512.059.156.149.3.274.433.125.13.37.305.742.531.453.274.75.497.894.668a.86.86 0 0 1 .211.543c0 .254-.082.457-.257.61-.172.152-.407.226-.696.226-.3 0-.566-.105-.797-.316-.226-.211-.34-.488-.343-.836H2.25v1.266h.14c.044-.121.106-.18.184-.18.035 0 .125.023.262.07.332.117.61.176.824.176.371 0 .688-.129.953-.39.262-.262.395-.575.395-.942 0-.285-.086-.539-.258-.758-.176-.222-.508-.48-1.012-.773-.43-.258-.71-.465-.84-.63a.84.84 0 0 1-.195-.538c0-.211.078-.383.235-.512.156-.125.359-.191.617-.191.289 0 .53.086.718.258.192.167.301.406.332.707h.145V6.176h-.133a.367.367 0 0 1-.043.105c-.015.016-.039.024-.078.024a.837.837 0 0 1-.242-.055 2.215 2.215 0 0 0-.688-.125m4.621 0c-.464 0-.89.11-1.273.324-.383.219-.687.52-.91.903-.223.382-.336.789-.336 1.222 0 .586.195 1.106.586 1.559.387.453.855.738 1.398.847.125.063.301.227.532.493.261.3.484.52.668.648.175.125.375.223.582.285.21.063.433.094.675.094.297 0 .559-.05.79-.152l-.051-.13c-.137.048-.286.071-.43.071-.207 0-.414-.066-.621-.2-.207-.136-.465-.39-.777-.769a2.737 2.737 0 0 0-.301-.34 2.447 2.447 0 0 0 1.46-.851 2.36 2.36 0 0 0 .571-1.555c0-.687-.246-1.265-.742-1.738-.492-.473-1.102-.711-1.82-.711m2.886 0 .008.148c.309 0 .484.09.523.274.012.062.02.183.02.355v3.305c-.004.246-.04.402-.11.473-.066.066-.183.11-.35.125l-.009.152h3.098l.078-.75h-.14c-.04.203-.133.348-.282.434-.144.082-.406.125-.785.125h-.293c-.34 0-.535-.121-.586-.368a.684.684 0 0 1-.016-.156l.012-3.34c0-.246.031-.41.098-.492.066-.078.183-.125.355-.137l-.008-.148Zm-2.836.18c.524 0 .953.207 1.285.617.332.414.497.98.497 1.695 0 .68-.165 1.223-.5 1.63-.336.41-.778.612-1.332.612-.532 0-.961-.21-1.293-.632-.329-.422-.493-.97-.493-1.641 0-.691.164-1.246.496-1.66.336-.414.782-.621 1.34-.621m7.121.71a.214.214 0 0 0-.175.079c-.047.047-.059.11-.043.183a.31.31 0 0 0 .12.188.327.327 0 0 0 .212.082.192.192 0 0 0 .168-.082c.039-.05.05-.113.039-.188a.32.32 0 0 0-.117-.183.323.323 0 0 0-.204-.078m2.04.507c-.126.489-.407.75-.833.793l.004.141h.5l-.011 1.648c.003.282.011.47.03.567.052.226.2.344.454.344.367 0 .754-.22 1.156-.66l-.12-.102c-.294.289-.552.434-.774.434-.137 0-.223-.079-.254-.231a.514.514 0 0 1-.016-.133l.008-1.867h.762l-.008-.223h-.754v-.71Zm2.945.622c-.426 0-.77.203-1.04.609-.269.406-.35.855-.245 1.351.062.29.183.516.375.672.187.16.425.239.714.239.266 0 .637-.067.793-.2.157-.136.301-.351.434-.648l-.105-.113a1.165 1.165 0 0 1-.965.582c-.446 0-.72-.242-.82-.719-.016-.066-.024-.133-.032-.195.531-.086.93-.23 1.203-.442.27-.21.543-.437.492-.676a.542.542 0 0 0-.218-.332c-.117-.085-.418-.128-.586-.128m-4.657.015-.917.211v.16l.316-.039c.156 0 .246.07.273.207.012.043.016.11.02.192l-.012 1.48c0 .203-.023.324-.07.36-.047.035-.172.054-.371.054l-.004.137h1.457l-.004-.137c-.203 0-.332-.015-.39-.047-.06-.031-.098-.086-.114-.172a1.772 1.772 0 0 1-.023-.312l.007-2.094Zm4.426.277c.086 0 .172.032.258.098a.4.4 0 0 1 .156.223c.082.39-.273.664-1.066.816a1.377 1.377 0 0 1 .156-.785c.125-.234.293-.351.496-.351" style="stroke:none;fill-rule:nonzero;fill:#003b57;fill-opacity:1"/></g></g></svg>