<svg xmlns="http://www.w3.org/2000/svg" width="32" height="32"><path d="M7.5 0h17C28.64 0 32 3.36 32 7.5v17c0 4.14-3.36 7.5-7.5 7.5h-17C3.36 32 0 28.64 0 24.5v-17C0 3.36 3.36 0 7.5 0Zm0 0" style="stroke:none;fill-rule:nonzero;fill:#000;fill-opacity:1"/><path d="M10.922 18.402c0 1.278-.785 3.211-3.277 3.207H4.5V10.375h3.21c2.403 0 3.212 1.934 3.212 3.21Zm-3.098-5.925c.262 0 .524.097.79.296.261.196.394.493.394.887v4.73c0 .395-.133.688-.395.887-.261.196-.527.293-.789.293H6.641v-7.093Zm0 0" style="stroke:none;fill-rule:evenodd;fill:#fff;fill-opacity:1"/><path d="M17.746 12.383h-3.613v2.61h2.207V17h-2.207v2.605h3.613v2.008h-4.215a1.367 1.367 0 0 1-1.402-1.336v-8.496a1.365 1.365 0 0 1 1.336-1.402h4.281Zm7.024 7.828c-.895 2.086-2.5 1.672-3.215 0l-2.614-9.832h2.207l2.016 7.723 2.004-7.723h2.207Zm0 0" style="stroke:none;fill-rule:nonzero;fill:#fff;fill-opacity:1"/></svg>